<?xml version="1.0" standalone="no"?>
<!DOCTYPE svg PUBLIC "-//W3C//DTD SVG 20010904//EN"
 "http://www.w3.org/TR/2001/REC-SVG-20010904/DTD/svg10.dtd">
<svg version="1.0" xmlns="http://www.w3.org/2000/svg"
 width="512.000000pt" height="512.000000pt" viewBox="0 0 512.000000 512.000000"
 preserveAspectRatio="xMidYMid meet">
<metadata>
Created by potrace 1.14, written by Peter Selinger 2001-2017
</metadata>
<g transform="translate(0.000000,512.000000) scale(0.100000,-0.100000)"
fill="#000000" stroke="none">
<path d="M2288 4743 c-104 -27 -197 -107 -246 -211 l-27 -57 -3 -475 c-2 -261
-5 -476 -7 -478 -3 -4 -396 219 -670 380 -158 93 -243 111 -366 78 -126 -33
-170 -78 -304 -315 -38 -66 -73 -127 -80 -135 -6 -8 -23 -42 -37 -76 -22 -51
-26 -74 -24 -146 1 -73 6 -94 34 -149 41 -84 80 -124 162 -168 25 -13 52 -30
61 -37 8 -8 18 -14 22 -14 3 0 70 -38 149 -84 79 -46 159 -93 178 -104 248
-141 320 -185 320 -193 0 -3 -30 -24 -67 -46 -57 -33 -578 -335 -686 -396
-109 -63 -175 -182 -175 -318 0 -71 19 -132 61 -204 30 -50 49 -84 86 -149 11
-19 30 -52 43 -73 13 -21 30 -50 37 -65 49 -96 176 -175 292 -182 102 -6 155
14 383 145 116 67 229 132 251 144 22 13 106 61 188 108 l147 85 1 -456 c1
-252 3 -470 5 -485 11 -101 125 -237 232 -278 52 -19 77 -21 287 -23 127 -1
249 2 273 6 110 19 218 107 271 218 l26 55 3 475 c2 261 5 476 7 478 2 3 163
-87 357 -199 438 -252 467 -267 543 -273 118 -10 247 40 311 121 29 36 194
315 245 413 20 38 23 60 24 140 0 88 -3 101 -33 163 -36 72 -93 130 -178 177
-66 37 -172 98 -209 121 -16 10 -41 24 -55 32 -14 7 -99 56 -190 109 -91 52
-185 107 -210 121 -24 13 -46 29 -48 35 -1 5 23 25 55 43 370 210 736 428 767
457 51 49 95 145 103 224 6 72 -15 174 -47 218 -11 15 -20 30 -20 33 0 3 -43
78 -96 168 -64 111 -110 177 -140 204 -84 76 -213 107 -328 81 -29 -7 -95 -37
-147 -66 -132 -75 -521 -298 -539 -310 -8 -5 -50 -29 -92 -53 l-78 -45 -1 457
c0 251 -3 470 -5 486 -8 47 -48 127 -85 170 -40 45 -118 97 -174 115 -55 18
-489 20 -557 3z"/>
</g>
</svg>
